<svg width="44" height="44" viewBox="0 0 44 44" fill="none" xmlns="http://www.w3.org/2000/svg">
<path d="M3 23C3 20.7909 4.79086 19 7 19H37C39.2091 19 41 20.7909 41 23V31H3V23Z" fill="#DAA036"/>
<path d="M16 24L16 2C16 0.89543 16.8954 0 18 0H26C27.1046 0 28 0.895431 28 2L28 24H16Z" fill="#DAA036"/>
<path d="M2.81063 31.7575C2.92193 31.3123 3.32191 31 3.78078 31H40.2192C40.6781 31 41.0781 31.3123 41.1894 31.7575L43.6894 41.7575C43.8472 42.3886 43.3698 43 42.7192 43H1.28078C0.630207 43 0.152847 42.3886 0.310634 41.7575L2.81063 31.7575Z" fill="#F4EDE0"/>
<line y1="-0.5" x2="12.4873" y2="-0.5" transform="matrix(-0.276644 0.960973 -0.977234 -0.212163 6.45454 31)" stroke="#666666"/>
<line y1="-0.5" x2="12.4873" y2="-0.5" transform="matrix(-0.276644 0.960973 -0.977234 -0.212163 11.9091 31)" stroke="#666666"/>
<line y1="-0.5" x2="12.4873" y2="-0.5" transform="matrix(-0.276644 0.960973 -0.977234 -0.212163 17.3636 31)" stroke="#666666"/>
<line y1="-0.5" x2="12.4873" y2="-0.5" transform="matrix(-0.276644 0.960973 -0.977234 -0.212163 22.8182 31)" stroke="#666666"/>
<line y1="-0.5" x2="12.4873" y2="-0.5" transform="matrix(-0.276644 0.960973 -0.977234 -0.212163 28.2727 31)" stroke="#666666"/>
<line y1="-0.5" x2="12.4873" y2="-0.5" transform="matrix(-0.276644 0.960973 -0.977234 -0.212163 33.7273 31)" stroke="#666666"/>
<line y1="-0.5" x2="12.4873" y2="-0.5" transform="matrix(-0.276644 0.960973 -0.977234 -0.212163 39.1818 31)" stroke="#666666"/>
<rect x="3" y="28" width="38" height="4" fill="#BD851C"/>
</svg>
