<svg width="60" height="40" viewBox="0 0 60 40" fill="none" xmlns="http://www.w3.org/2000/svg">
<rect y="5.10638" width="60" height="34.4681" rx="2" fill="#666666"/>
<path d="M23.3334 0.421296C23.6845 0.148245 24.1165 0 24.5613 0H50.7579C51.2026 0 51.6347 0.148244 51.9858 0.421296L55.3988 3.07589C56.902 4.24502 56.0752 6.65459 54.1709 6.65459H21.1482C19.2439 6.65459 18.4172 4.24502 19.9203 3.07589L23.3334 0.421296Z" fill="#616060"/>
<path d="M33.2716 1.66852C33.4608 1.42147 33.7542 1.2766 34.0654 1.2766H42.5303C42.8415 1.2766 43.135 1.42147 43.3242 1.66852L44.7257 3.49831C45.2297 4.15621 44.7606 5.10638 43.9319 5.10638H32.6639C31.8352 5.10638 31.3661 4.15621 31.87 3.49831L33.2716 1.66852Z" fill="white"/>
<rect x="3.82977" y="3.82979" width="11.4894" height="3.82979" rx="1.91489" fill="#B3AEAE"/>
<rect x="8.93616" y="11.4894" width="15.3191" height="3.82979" rx="1.91489" fill="#EEF1B4"/>
<circle cx="41.4894" cy="22.3404" r="13.4043" fill="#D9D9D9"/>
<circle cx="42.1277" cy="22.9787" r="11.4894" fill="#555353"/>
<circle cx="42.1277" cy="22.9787" r="8.93617" fill="#F5F5F5"/>
<circle cx="42.766" cy="23.617" r="7.02128" fill="#424242"/>
<circle cx="41.4894" cy="23.617" r="4.46809" fill="#D6D6D6"/>
<circle cx="27.4468" cy="32.5532" r="1.91489" fill="#D6D6D6"/>
<circle cx="44.0426" cy="26.1702" r="3.19149" fill="white"/>
</svg>
