<svg width="95" height="30" viewBox="0 0 95 30" fill="none" xmlns="http://www.w3.org/2000/svg">
<path d="M95 20C95 23.3137 92.3137 26 89 26C87.862 26 86.7982 25.683 85.8916 25.1328C85.3618 27.9048 82.9263 30 80 30C76.6863 30 74 27.3137 74 24C74 23.2404 74.1429 22.5145 74.4004 21.8457L5.66244e-06 29V2L74.748 8.89941C74.2725 8.03977 74 7.05198 74 6C74 2.68629 76.6863 0 80 0C82.926 0 85.3614 2.09473 85.8916 4.86621C86.7981 4.31617 87.8622 4 89 4C92.3137 4 95 6.68629 95 10C95 12.0871 93.9342 13.9251 92.3174 15C93.9342 16.0749 95 17.9129 95 20Z" fill="white"/>
<ellipse cx="81.6744" cy="15.2378" rx="2.4942" ry="3.32559" transform="rotate(90 81.6744 15.2378)" fill="#68564C"/>
<ellipse cx="79.1802" cy="17.732" rx="2.4942" ry="3.32559" transform="rotate(113.392 79.1802 17.732)" fill="#68564C"/>
<ellipse cx="79.2947" cy="13.0275" rx="2.4942" ry="3.32559" transform="rotate(75 79.2947 13.0275)" fill="#68564C"/>
<ellipse cx="79.7702" cy="4.42181" rx="2.03219" ry="2.70959" transform="rotate(75 79.7702 4.42181)" fill="#68564C"/>
<ellipse cx="89.5675" cy="9.53115" rx="2.6138" ry="3.08162" transform="rotate(75 89.5675 9.53115)" fill="#68564C"/>
<ellipse cx="89.7136" cy="20.3276" rx="2.6138" ry="3.22215" transform="rotate(112.141 89.7136 20.3276)" fill="#68564C"/>
<ellipse cx="79.8568" cy="25.6642" rx="2.03219" ry="2.70959" transform="rotate(117.615 79.8568 25.6642)" fill="#68564C"/>
<ellipse cx="62" cy="14.5" rx="5.5" ry="8" transform="rotate(78.0415 62 14.5)" fill="#8C8787" fill-opacity="0.11"/>
<ellipse cx="41" cy="17.5" rx="5.5" ry="8" transform="rotate(100.141 41 17.5)" fill="#8C8787" fill-opacity="0.11"/>
<ellipse cx="17.9063" cy="11.2734" rx="5.5" ry="8" transform="rotate(75.9875 17.9063 11.2734)" fill="#8C8787" fill-opacity="0.11"/>
</svg>
