<svg width="48" height="60" viewBox="0 0 48 60" fill="none" xmlns="http://www.w3.org/2000/svg">
<rect y="12" width="48" height="48" rx="6" fill="#C28B8B"/>
<rect x="5" y="17" width="38" height="38" rx="2" fill="#D9D9D9"/>
<rect x="7" y="22" width="8" height="8" rx="1" fill="#2D7635"/>
<rect x="7" y="33" width="8" height="8" rx="1" fill="#2D7635"/>
<rect x="7" y="44" width="8" height="8" rx="1" fill="#2D7635"/>
<rect x="18" y="24" width="22" height="4" rx="1" fill="#8C8787"/>
<rect x="18" y="35" width="22" height="4" rx="1" fill="#8C8787"/>
<rect x="18" y="46" width="22" height="4" rx="1" fill="#8C8787"/>
<path d="M22.0979 5.8541C22.6966 4.01148 25.3034 4.01148 25.9021 5.8541L26.4697 7.60081C26.7374 8.42486 27.5053 8.98278 28.3718 8.98278H30.2084C32.1458 8.98278 32.9514 11.462 31.3839 12.6008L29.8981 13.6803C29.1971 14.1896 28.9038 15.0924 29.1716 15.9164L29.7391 17.6631C30.3378 19.5057 28.2288 21.038 26.6614 19.8992L25.1756 18.8197C24.4746 18.3104 23.5254 18.3104 22.8244 18.8197L21.3386 19.8992C19.7712 21.038 17.6622 19.5057 18.2609 17.6631L18.8284 15.9164C19.0962 15.0924 18.8029 14.1896 18.1019 13.6803L16.6161 12.6008C15.0486 11.462 15.8542 8.98278 17.7916 8.98278H19.6282C20.4947 8.98278 21.2626 8.42486 21.5303 7.60081L22.0979 5.8541Z" fill="#F4FF23"/>
</svg>
