<svg width="36" height="46" viewBox="0 0 36 46" fill="none" xmlns="http://www.w3.org/2000/svg">
<path d="M0 5C0 4.44771 0.447715 4 1 4H34.1575C34.7098 4 35.1575 4.44772 35.1575 5V44.4356C35.1575 44.9879 34.7098 45.4356 34.1575 45.4356H1C0.447716 45.4356 0 44.9879 0 44.4356V5Z" fill="white"/>
<rect x="11" width="13" height="5" rx="1" fill="#FCD283"/>
<rect x="7" y="4" width="21" height="3" rx="1" fill="#FCD283"/>
<ellipse cx="17.5" cy="2" rx="1.5" ry="1" fill="#D9D9D9"/>
<circle cx="6.5" cy="12.5" r="2.5" fill="#D9D9D9"/>
<circle cx="6.5" cy="33.5" r="2.5" fill="#D9D9D9"/>
<circle cx="6.5" cy="26.5" r="2.5" fill="#D9D9D9"/>
<circle cx="6.5" cy="19.5" r="2.5" fill="#D9D9D9"/>
<path d="M6 12.2078C6.10703 12.3198 6.44311 12.5905 6.89554 12.9244C7.06373 13.0485 7.12054 13.0678 7.44243 12.6029C7.76432 12.1381 8.35297 11.1854 8.66291 10.661C8.97284 10.1365 8.98622 10.0693 9 10" stroke="#3C9447" stroke-linecap="round"/>
<path d="M6 19.2078C6.10703 19.3198 6.44311 19.5905 6.89554 19.9244C7.06373 20.0485 7.12054 20.0678 7.44243 19.6029C7.76432 19.1381 8.35297 18.1854 8.66291 17.661C8.97284 17.1365 8.98622 17.0693 9 17" stroke="#3C9447" stroke-linecap="round"/>
<path d="M12.9568 11.7626C14.6631 11.7796 16.3693 11.7965 18.0769 11.9901C19.7846 12.1837 21.4418 12.5533 23.0816 12.6414C24.7214 12.7295 26.2935 12.5249 27.5783 12.3035C29.8254 11.9164 30.9489 11.6375 31.2332 11.7701C31.3604 11.8766 31.4529 12.0629 31.5521 12.0772C31.6513 12.0914 31.7544 11.9281 31.8605 11.7599" stroke="#666666" stroke-linecap="round"/>
<path d="M12.9568 26.7626C14.6631 26.7796 16.3693 26.7965 18.0769 26.9901C19.7846 27.1837 21.4418 27.5533 23.0816 27.6414C24.7214 27.7295 26.2935 27.5249 27.5783 27.3035C29.8254 26.9164 30.9489 26.6375 31.2332 26.7701C31.3604 26.8766 31.4529 27.0629 31.5521 27.0772C31.6513 27.0914 31.7544 26.9281 31.8605 26.7599" stroke="#666666" stroke-linecap="round"/>
<path d="M11.7381 18.8035C15.1773 18.8164 18.6165 18.8293 21.9744 18.9044C25.3324 18.9795 28.5048 19.1164 30.2929 19.1629C32.081 19.2095 32.3887 19.1617 32.8227 19.1089" stroke="#666666" stroke-linecap="round"/>
</svg>
