<svg width="96" height="52" viewBox="0 0 96 52" fill="none" xmlns="http://www.w3.org/2000/svg">
<ellipse cx="33.5" cy="8.9878" rx="33.5" ry="8.9878" fill="url(#paint0_linear_129_327)"/>
<ellipse cx="32.6829" cy="10.2134" rx="22.061" ry="6.12805" fill="#939E4E"/>
<path d="M2.45123 12.2561H64.5488L51.0632 48.0682C50.4763 49.6267 48.9851 50.6585 47.3198 50.6585H18.9019C17.2085 50.6585 15.6985 49.5921 15.1322 47.9961L2.45123 12.2561Z" fill="#EBCA8B"/>
<ellipse cx="21.6525" cy="8.57927" rx="7.7622" ry="2.04268" fill="white"/>
<rect x="13.8903" y="26.4115" width="3.26829" height="22.878" rx="1.63415" transform="rotate(-19.3369 13.8903 26.4115)" fill="#EFEBEB"/>
<rect x="50.7263" y="24.3624" width="3.26829" height="22.878" rx="1.63415" transform="rotate(14.4633 50.7263 24.3624)" fill="#EFEBEB"/>
<rect x="28.3435" y="24.9878" width="3.26829" height="22.878" rx="1.63415" transform="rotate(-11.8567 28.3435 24.9878)" fill="#EFEBEB"/>
<path d="M77.5709 30.8502H88.5066V48.0392C88.5066 49.6961 87.1634 51.0392 85.5066 51.0392H80.5709C78.914 51.0392 77.5709 49.6961 77.5709 48.0392V30.8502Z" fill="#D2AE7B"/>
<path d="M75.8885 30.8502H89.3478V32.3738C89.3478 32.9261 88.9001 33.3738 88.3478 33.3738H76.8885C76.3362 33.3738 75.8885 32.9261 75.8885 32.3738V30.8502Z" fill="#DCB276"/>
<path d="M75.8885 31.6914H89.3478V31.6914C89.3478 32.156 88.9712 32.5326 88.5066 32.5326H76.7297C76.2651 32.5326 75.8885 32.156 75.8885 31.6914V31.6914Z" fill="black" fill-opacity="0.73"/>
<path d="M70.5504 18.1485C70.2683 16.8978 71.2193 15.7085 72.5014 15.7085H92.7714C94.0417 15.7085 94.9902 16.8774 94.7285 18.1205L92.2057 30.1034C92.0109 31.0289 91.1944 31.6914 90.2486 31.6914H75.2043C74.2693 31.6914 73.4591 31.0436 73.2533 30.1315L70.5504 18.1485Z" fill="#D2AE7B" fill-opacity="0.76"/>
<path d="M93.8744 13.6898C94.5064 15.017 93.5387 16.5497 92.0687 16.5497L73.0775 16.5497C71.6302 16.5497 70.6621 15.06 71.2499 13.7374L72.837 10.1665C73.158 9.44425 73.8742 8.97878 74.6646 8.97878L90.3683 8.97878C91.1397 8.97878 91.8423 9.42243 92.174 10.1189L93.8744 13.6898Z" fill="#D2AE7B" fill-opacity="0.76"/>
<rect x="81.7769" y="39.2623" width="0.841209" height="10.0945" rx="0.420604" fill="#68564C"/>
<rect x="84.3005" y="37.5799" width="0.841209" height="10.0945" rx="0.420604" fill="#68564C"/>
<path d="M75.3366 30.6133C75.2913 30.3159 75.2459 30.0186 74.8732 27.0958C74.5005 24.1729 73.8019 18.6337 73.4745 15.5868C73.147 12.54 73.212 12.1534 73.3234 11.838C73.4349 11.5226 73.5909 11.29 73.989 10.8526C74.387 10.4151 75.0223 9.77974 75.8037 8.83838" stroke="white" stroke-linecap="round"/>
<path d="M77.8602 30.6133C77.8149 30.3159 77.7695 30.0186 77.3968 27.0958C77.0241 24.1729 76.3255 18.6337 75.9981 15.5868C75.6707 12.54 75.7356 12.1534 75.8471 11.838C75.9585 11.5226 76.1146 11.29 76.5126 10.8526C76.9106 10.4151 77.5459 9.77974 78.3273 8.83838" stroke="white" stroke-linecap="round"/>
<path d="M80.3839 30.6133C80.3385 30.3159 80.2931 30.0186 79.9204 27.0958C79.5478 24.1729 78.8491 18.6337 78.5217 15.5868C78.1943 12.54 78.2592 12.1534 78.3707 11.838C78.4821 11.5226 78.6382 11.29 79.0362 10.8526C79.4342 10.4151 80.0695 9.77974 80.851 8.83838" stroke="white" stroke-linecap="round"/>
<path d="M82.0663 30.6133C82.0209 30.3159 81.9756 30.0186 81.6029 27.0958C81.2302 24.1729 80.5316 18.6337 80.2041 15.5868C79.8767 12.54 79.9417 12.1534 80.0531 11.838C80.1646 11.5226 80.3206 11.29 80.7186 10.8526C81.1167 10.4151 81.7519 9.77974 82.5334 8.83838" stroke="white" stroke-linecap="round"/>
<path d="M89.9247 30.6133C89.9715 30.3159 90.0182 30.0186 90.4022 27.0958C90.7862 24.1729 91.506 18.6337 91.8433 15.5868C92.1807 12.54 92.1138 12.1534 91.999 11.838C91.8841 11.5226 91.7233 11.29 91.3133 10.8526C90.9032 10.4151 90.2486 9.77974 89.4435 8.83838" stroke="white" stroke-linecap="round"/>
<path d="M87.3246 30.6133C87.3713 30.3159 87.4181 30.0186 87.802 27.0958C88.186 24.1729 88.9058 18.6337 89.2432 15.5868C89.5805 12.54 89.5136 12.1534 89.3988 11.838C89.284 11.5226 89.1232 11.29 88.7131 10.8526C88.303 10.4151 87.6485 9.77974 86.8433 8.83838" stroke="white" stroke-linecap="round"/>
<path d="M84.6989 30.6133C84.7456 30.3159 84.7924 30.0186 85.1764 27.0958C85.5604 24.1729 86.2802 18.6337 86.6175 15.5868C86.9549 12.54 86.888 12.1534 86.7731 11.838C86.6583 11.5226 86.4975 11.29 86.0874 10.8526C85.6773 10.4151 85.0228 9.77974 84.2176 8.83838" stroke="white" stroke-linecap="round"/>
<defs>
<linearGradient id="paint0_linear_129_327" x1="0" y1="8.9878" x2="67" y2="8.9878" gradientUnits="userSpaceOnUse">
<stop offset="0.889423" stop-color="#5F5454"/>
<stop offset="1" stop-color="#C5AEAE"/>
</linearGradient>
</defs>
</svg>
