<svg width="36" height="43" viewBox="0 0 36 43" fill="none" xmlns="http://www.w3.org/2000/svg">
<path d="M0 1.98071C0 1.42843 0.447715 0.980713 1 0.980713H34.1575C34.7098 0.980713 35.1575 1.42843 35.1575 1.98071V41.4164C35.1575 41.9686 34.7098 42.4164 34.1575 42.4164H1C0.447716 42.4164 0 41.9686 0 41.4164V1.98071Z" fill="white"/>
<path d="M3.90219 9.9644C4.08081 9.9644 5.0659 10.1877 6.88793 10.4367C10.469 10.926 11.8385 7.75605 12.2884 7.48542C13.8013 6.5754 16.4839 8.60854 18.9574 10.0043C20.2958 10.7595 22.1644 10.549 23.2929 10.574C24.6575 10.6043 25.3254 10.0997 25.6407 10.2114C25.807 10.2703 25.8667 10.5463 26.002 10.5943C26.7046 10.8437 27.6664 9.9211 28.527 9.76211C28.8869 9.56116 29.5175 9.5571 30.2834 9.80473C30.6027 9.9184 30.7813 10.0077 31.1007 10.0997" stroke="#666666" stroke-linecap="round"/>
<path d="M3.76685 14.4298C6.63148 14.3852 11.4311 14.2052 12.1314 14.2262C12.4865 14.2368 12.741 14.6098 13.1009 14.6551C14.2029 14.7939 15.312 13.5733 15.7612 13.5949C17.1256 13.6607 17.9263 14.4731 18.6489 14.7221C19.6145 15.0548 21.1712 15.1497 22.548 15.2864C22.8896 15.3203 23.2009 15.4203 23.4512 15.3547C23.9515 15.2236 24.2875 14.7018 24.7151 14.5435C25.4439 14.2737 26.2239 15.4203 28.7231 15.49C29.2495 15.4677 29.4281 15.423 29.6764 15.4C29.9247 15.377 30.2373 15.377 30.5594 15.377" stroke="#666666" stroke-linecap="round"/>
<path d="M5.25537 18.7599C5.88053 18.7599 9.1051 18.492 13.5252 18.1977C15.3514 18.0761 16.3431 18.9413 18.6435 18.9176C19.283 18.911 20.0887 19.0306 21.0582 19.1422C21.5682 19.2009 21.5826 19.9304 21.8295 20.224C23.5122 19.9345 26.1346 19.5718 27.2381 19.3472C27.7543 19.3012 28.6028 19.3012 29.4769 19.3012" stroke="#666666" stroke-linecap="round"/>
<path d="M3.90219 23.7763C4.08081 23.7763 5.0659 23.9996 6.88793 24.2485C10.469 24.7379 11.8385 21.5679 12.2884 21.2973C13.8013 20.3873 16.4839 22.4204 18.9574 23.8162C20.2958 24.5714 22.1644 24.3608 23.2929 24.3859C24.6575 24.4162 25.3254 23.9116 25.6407 24.0232C25.807 24.0821 25.8667 24.3581 26.002 24.4062C26.7046 24.6556 27.6664 23.733 28.527 23.574C28.8869 23.373 29.5175 23.369 30.2834 23.6166C30.6027 23.7303 30.7813 23.8196 31.1007 23.9116" stroke="#666666" stroke-linecap="round"/>
<path d="M3.76685 28.2417C6.63148 28.1971 11.4311 28.0171 12.1314 28.0381C12.4865 28.0487 12.741 28.4217 13.1009 28.467C14.2029 28.6058 15.312 27.3852 15.7612 27.4068C17.1256 27.4726 17.9263 28.285 18.6489 28.534C19.6145 28.8667 21.1712 28.9616 22.548 29.0983C22.8896 29.1322 23.2009 29.2322 23.4512 29.1666C23.9515 29.0354 24.2875 28.5137 24.7151 28.3554C25.4439 28.0855 26.2239 29.2322 28.7231 29.3019C29.2495 29.2796 29.4281 29.2349 29.6764 29.2119C29.9247 29.1889 30.2373 29.1889 30.5594 29.1889" stroke="#666666" stroke-linecap="round"/>
<path d="M5.25537 32.5718C5.88053 32.5718 9.1051 32.3039 13.5252 32.0096C15.3514 31.888 16.3431 32.7531 18.6435 32.7295C19.283 32.7229 20.0887 32.8424 21.0582 32.9541C21.5682 33.0128 21.5826 33.7423 21.8295 34.0359C23.5122 33.7464 26.1346 33.3837 27.2381 33.1591C27.7543 33.1131 28.6028 33.1131 29.4769 33.1131" stroke="#666666" stroke-linecap="round"/>
<path d="M3.82134 2.23038C3.82601 2.01924 3.83388 1.56843 3.76454 1.2294C3.60886 0.468148 2.74432 0.545438 2.58566 0.503608C2.51074 0.483855 2.44447 0.565519 2.40052 0.661368C2.17723 1.14841 2.11681 2.03061 2.05736 2.67427C2.04975 2.78201 2.05447 2.8473 2.07767 2.89255C2.10086 2.93781 2.1424 2.96106 2.18519 2.98501" stroke="#B2A2A2" stroke-linecap="round"/>
<path d="M7.58822 2.23038C7.59288 2.01924 7.60076 1.56843 7.53142 1.2294C7.37573 0.468148 6.5112 0.545438 6.35254 0.503608C6.27762 0.483855 6.21134 0.565519 6.1674 0.661368C5.9441 1.14841 5.88369 2.03061 5.82424 2.67427C5.81663 2.78201 5.82135 2.8473 5.84454 2.89255C5.86774 2.93781 5.90927 2.96106 5.95206 2.98501" stroke="#B2A2A2" stroke-linecap="round"/>
<path d="M12.6107 2.23038C12.6154 2.01924 12.6233 1.56843 12.5539 1.2294C12.3983 0.468148 11.5337 0.545438 11.3751 0.503608C11.3001 0.483855 11.2339 0.565519 11.1899 0.661368C10.9666 1.14841 10.9062 2.03061 10.8468 2.67427C10.8391 2.78201 10.8439 2.8473 10.8671 2.89255C10.8903 2.93781 10.9318 2.96106 10.9746 2.98501" stroke="#B2A2A2" stroke-linecap="round"/>
<path d="M17.6332 2.23038C17.6379 2.01924 17.6458 1.56843 17.5764 1.2294C17.4207 0.468148 16.5562 0.545438 16.3976 0.503608C16.3226 0.483855 16.2564 0.565519 16.2124 0.661368C15.9891 1.14841 15.9287 2.03061 15.8693 2.67427C15.8616 2.78201 15.8664 2.8473 15.8896 2.89255C15.9128 2.93781 15.9543 2.96106 15.9971 2.98501" stroke="#B2A2A2" stroke-linecap="round"/>
<path d="M22.6557 2.23038C22.6604 2.01924 22.6683 1.56843 22.5989 1.2294C22.4432 0.468148 21.5787 0.545438 21.42 0.503608C21.3451 0.483855 21.2788 0.565519 21.2349 0.661368C21.0116 1.14841 20.9512 2.03061 20.8917 2.67427C20.8841 2.78201 20.8889 2.8473 20.912 2.89255C20.9352 2.93781 20.9768 2.96106 21.0196 2.98501" stroke="#B2A2A2" stroke-linecap="round"/>
<path d="M27.6782 2.23038C27.6829 2.01924 27.6908 1.56843 27.6214 1.2294C27.4658 0.468148 26.6012 0.545438 26.4426 0.503608C26.3676 0.483855 26.3014 0.565519 26.2574 0.661368C26.0341 1.14841 25.9737 2.03061 25.9143 2.67427C25.9067 2.78201 25.9114 2.8473 25.9346 2.89255C25.9578 2.93781 25.9993 2.96106 26.0421 2.98501" stroke="#B2A2A2" stroke-linecap="round"/>
<path d="M32.7007 2.23038C32.7054 2.01924 32.7133 1.56843 32.6439 1.2294C32.4883 0.468148 31.6237 0.545438 31.4651 0.503608C31.3901 0.483855 31.3239 0.565519 31.2799 0.661368C31.0566 1.14841 30.9962 2.03061 30.9368 2.67427C30.9291 2.78201 30.9339 2.8473 30.9571 2.89255C30.9803 2.93781 31.0218 2.96106 31.0646 2.98501" stroke="#B2A2A2" stroke-linecap="round"/>
</svg>
