<svg width="148" height="113" viewBox="0 0 148 113" fill="none" xmlns="http://www.w3.org/2000/svg">
<path d="M52.0544 68.4267L147.554 68.4267L131.108 92.3594L31.1085 92.8063L52.0544 68.4267Z" fill="#645E5E"/>
<path d="M52.0544 68.4267L147.554 68.4267L131.108 92.3594L31.1085 92.8063L52.0544 68.4267Z" fill="#645E5E"/>
<path d="M57.0718 72.089L139.008 72.0151L124.879 88.4177L39.082 88.8011L57.0718 72.089Z" fill="white"/>
<path d="M57.0718 72.089L139.008 72.0151L124.879 88.4177L39.082 88.8011L57.0718 72.089Z" fill="white"/>
<rect width="131" height="78" rx="3" fill="#6B6B6B"/>
<ellipse cx="65.5" cy="104" rx="34.5" ry="9" fill="#666666"/>
<rect x="60" y="65" width="11" height="33" fill="#666666"/>
<line x1="10.5982" y1="43.7024" x2="30.5982" y2="16.7024" stroke="white"/>
<line x1="77.5865" y1="53.7188" x2="94.5865" y2="28.7188" stroke="white"/>
<ellipse cx="44" cy="49.5" rx="36" ry="19.5" fill="#D9D9D9"/>
<rect x="32" y="42" width="6" height="16" rx="2" fill="#666666"/>
<rect x="43" y="42" width="6" height="16" rx="2" fill="#666666"/>
<rect x="53" y="42" width="6" height="16" rx="2" fill="#666666"/>
</svg>
