<svg width="90" height="82" viewBox="0 0 90 82" fill="none" xmlns="http://www.w3.org/2000/svg">
<path d="M37.4339 68.0266C35.319 71.0851 30.5399 69.8551 30.1644 66.1556L29.2823 57.4667C29.0012 54.6978 31.5635 52.4952 34.2588 53.1889L40.1081 54.6944C42.8035 55.3881 43.9841 58.554 42.4012 60.8432L37.4339 68.0266Z" fill="#F7B0E3"/>
<path d="M48.3615 68.1212C48.0225 71.8242 43.2558 73.1014 41.1108 70.064L36.0727 62.93C34.4672 60.6566 35.6165 57.4792 38.3048 56.7589L44.1389 55.1956C46.8273 54.4753 49.4113 56.6524 49.1576 59.4239L48.3615 68.1212Z" fill="#F7B0E3"/>
<path d="M68.8214 68.3273C67.5702 71.829 62.6355 71.8778 61.3153 68.4015L58.2144 60.237C57.2262 57.6352 59.1312 54.8445 61.9142 54.817L67.9538 54.7572C70.7369 54.7297 72.6967 57.4821 71.7602 60.103L68.8214 68.3273Z" fill="#F7B0E3"/>
<path d="M79.4011 65.5904C80.0321 69.2549 75.7584 71.7224 72.9003 69.3436L66.1875 63.7567C64.0483 61.9763 64.336 58.6097 66.7463 57.2181L71.977 54.1981C74.3873 52.8065 77.4467 54.2407 77.919 56.9835L79.4011 65.5904Z" fill="#F7B0E3"/>
<ellipse cx="53.4156" cy="41.2308" rx="29.2274" ry="25.7" fill="#FBA3E2"/>
<path d="M79.8028 43.6206C79.3883 43.4539 77.8152 42.7658 76.4317 41.6214C75.3941 40.7631 75.7154 39.1383 76.2005 36.9636C76.3111 36.4675 76.3198 36.1849 76.5046 35.9239C76.6894 35.663 77.0416 35.4304 77.3363 35.3033C78.3807 34.8527 79.7284 36.2374 80.6058 37.0743C81.1686 37.6111 81.2775 38.706 81.074 40.3663C81.0271 40.7491 80.9157 40.9915 80.8317 41.2017C80.7478 41.4119 80.6534 41.5754 80.467 41.4892C80.2806 41.4031 80.0051 41.0624 79.8056 40.672C79.6061 40.2816 79.4909 39.8519 79.728 39.1742" stroke="#5E5E5E" stroke-linecap="round"/>
<circle cx="21.1647" cy="32.6642" r="21.1647" fill="#F7B0E3"/>
<path d="M7.6084 8.11861C7.80753 6.27005 10.2008 5.66971 11.2489 7.20543L16.1604 14.4023C16.9448 15.5517 16.3448 17.131 14.995 17.4696L9.15033 18.9357C7.80057 19.2743 6.52618 18.1652 6.67522 16.7816L7.6084 8.11861Z" fill="#F7B0E3"/>
<path d="M28.5426 6.1908C29.6151 4.67208 31.9985 5.31069 32.1679 7.16221L32.9622 15.839C33.089 17.2248 31.797 18.3134 30.4529 17.9532L24.6324 16.3936C23.2882 16.0335 22.7136 14.4448 23.5163 13.308L28.5426 6.1908Z" fill="#F7B0E3"/>
<path d="M27.6125 9.56999C28.6657 7.93466 31.1971 8.61294 31.2915 10.5558L31.5495 15.8609C31.6153 17.2149 30.3436 18.2407 29.0342 17.8899L25.9003 17.0502C24.5909 16.6993 24.0025 15.175 24.7365 14.0354L27.6125 9.56999Z" fill="#FD94DF"/>
<path d="M7.9721 11.4412C8.15827 9.505 10.7189 8.94709 11.6937 10.6304L14.3554 15.2267C15.0347 16.3997 14.3749 17.8945 13.0504 18.1831L9.88036 18.8738C8.55587 19.1624 7.33403 18.0776 7.46377 16.7282L7.9721 11.4412Z" fill="#FD94DF"/>
<ellipse cx="14.1098" cy="22.5858" rx="1.00784" ry="2.01568" fill="#68564C"/>
<ellipse cx="23.1804" cy="22.5858" rx="1.00784" ry="2.01568" fill="#68564C"/>
<line x1="9.63122" y1="35.4641" x2="12.6547" y2="29.417" stroke="#DC70BD"/>
<line x1="26.7645" y1="37.4798" x2="29.788" y2="31.4327" stroke="#DC70BD"/>
<ellipse cx="18.6451" cy="36.1916" rx="9.5745" ry="5.54313" fill="#F589D6"/>
<ellipse cx="14.1098" cy="35.6877" rx="1.00784" ry="2.01568" transform="rotate(94.502 14.1098 35.6877)" fill="#3D3029"/>
<ellipse cx="22.1725" cy="35.6877" rx="1.00784" ry="2.01568" transform="rotate(94.502 22.1725 35.6877)" fill="#3D3029"/>
<path d="M62.5539 21.1956C62.2757 21.165 61.9975 21.1345 60.8419 21.0428C59.6864 20.9512 57.6618 20.7993 55.7266 20.8343C53.7914 20.8693 52.0069 21.0958 49.9575 21.3059" stroke="#68564C" stroke-linecap="round"/>
</svg>
